<?xml version="1.0" encoding="UTF-8"?>
<svg id="uuid-29b6c5e0-fcf9-415d-b877-019ebc4709c6" data-name="Capa_1" xmlns="http://www.w3.org/2000/svg" viewBox="0 0 761.91 952.46">
  <defs>
    <style>
      .uuid-c92834bf-f6a7-4af5-b5dd-0742b669a947 {
        fill: #1d1d1b;
      }

      .uuid-db67339f-24ea-4d94-83e9-dc6cf50f1992 {
        fill: #e31528;
      }
    </style>
  </defs>
  <path class="uuid-c92834bf-f6a7-4af5-b5dd-0742b669a947" d="M761.74,409.35c0,2.78-.05,5.56,0,8.34.44,19.3-1.46,38.44-3.99,57.53-4.14,31.27-11.23,61.86-21.4,91.72-8.92,26.17-19.91,51.47-33,75.82-11.08,20.61-24.56,39.62-39.6,57.52-1.78,2.13-3.84,4.02-5.74,6.05-2.05,2.18-4.22,4.27-6.09,6.6-2.69,3.36-5.63,6.42-9.05,9.05-1.52,1.17-2.94,2.49-4.32,3.83-13.03,12.81-27.6,23.7-43.02,33.38-9.78,6.14-19.8,11.96-30.12,17.12-10.32,5.16-20.99,9.73-31.79,13.79-14.82,5.58-29.87,10.58-45.28,14.33-23.32,5.67-46.91,9.78-70.81,12.19-18.77,1.89-37.57,2.94-56.4,2.2-18.82-.74-37.56-2.55-56.12-6.02-15.59-2.92-31.05-6.4-46.07-11.5-10.53-3.57-20.94-7.57-31.21-11.84-21.22-8.82-41.15-20.09-60.1-33.02-13.96-9.53-27.37-19.79-40.02-31.07-6.39-5.7-12.62-11.55-18.64-17.63-19.86-20.04-36.21-42.67-50.01-67.24-19.11-34.03-31.82-70.49-41.71-108.04-4.47-16.97-8.78-33.98-11.07-51.41-1.48-11.23-2.34-22.54-3.77-33.78-1.2-9.37-.64-18.82-1.53-28.16-.75-7.91-.96-15.79-.86-23.7.04-3.63.42-7.25.67-10.88.13-1.92.43-3.83.48-5.75.8-31.36,5.69-62.18,12.75-92.64,7.58-32.65,19.15-63.93,34.93-93.53,11.19-20.99,24.15-40.86,39.29-59.29,11.3-13.75,23.4-26.74,36.44-38.79,19.86-18.35,41.6-34.21,65.15-47.61,19.62-11.16,40.24-20.01,61.56-27.19,23.4-7.88,47.5-12.86,72-15.82,12.11-1.46,24.23-2.61,36.46-2.81,7.89-.13,15.77-1.37,23.7-1.04,3.84.16,7.68.44,11.53.69,1.92.13,3.84.44,5.76.46,26.66.34,52.89,3.98,78.81,10.05,20.68,4.84,40.78,11.48,60.32,19.8,29.33,12.5,56.26,29,81.05,48.99,5.99,4.83,11.61,10.1,17.31,15.28,5.69,5.18,11.58,10.19,16.83,15.79,17.88,19.05,35.03,38.74,48.55,61.22,10.71,17.8,19.96,36.36,27.37,55.81,10.08,26.49,17.05,53.79,22.07,81.64,3.04,16.86,5.29,33.81,6.99,50.84,1.61,16.18,2.17,32.42,1.68,48.69ZM379.57,715.05c0-.09,0-.19,0-.28,8.13,0,16.3.5,24.39-.11,14.09-1.07,28.06-3.24,41.9-6.2,20.85-4.46,40.75-11.66,59.87-20.95,13.31-6.46,25.83-14.36,37.62-23.28,7.5-5.68,14.8-11.67,21.74-18,5.19-4.74,9.73-10.2,14.46-15.44,19.43-21.49,34.13-45.99,45.72-72.41,3.43-7.83,6.66-15.8,9.24-23.94,5.17-16.33,9.27-32.95,11.94-49.89,3.39-21.57,5.83-43.23,6.18-65.09.03-1.92.25-3.84.36-5.76.29-4.91.74-9.81.81-14.72.13-8.77.06-17.54.03-26.31,0-2.56-.04-5.14-.29-7.69-1.88-19.61-4.83-39.06-9.15-58.29-2.34-10.44-5.41-20.67-8.99-30.78-4.73-13.37-10.98-26.03-17.66-38.46-9.56-17.81-21.62-33.9-35.29-48.76-12.36-13.43-26.17-25.22-41.04-35.82-12.06-8.6-24.78-16.11-38.08-22.54-16.21-7.83-32.99-14.25-50.39-19.04-21.34-5.87-43.03-9.67-65.1-11-14.56-.88-29.1.02-43.57,1.77-17.71,2.15-34.93,6.29-51.83,12.04-20.38,6.93-39.68,16.02-57.71,27.77-11.85,7.72-22.86,16.49-33.57,25.77-8.8,7.63-16.52,16.14-23.93,24.98-17.17,20.48-30.66,43.21-41.05,67.84-9.01,21.35-16.43,43.18-21.37,65.83-3.1,14.23-5.4,28.6-6.7,43.09-.8,8.94-1.3,17.92-1.49,26.89-.22,10.26-.3,20.52,1.01,30.76.98,7.63,1.12,15.36,2.11,22.99,4.38,33.88,12.62,66.83,24.71,98.77,6.45,17.05,14.81,33.2,24.63,48.58,6.58,10.3,13.92,20.03,21.89,29.28,4.33,5.02,8.66,10.06,13.33,14.75,4.52,4.54,9.34,8.81,14.28,12.9,19.7,16.35,41,30.15,64.67,40.16,31.74,13.42,64.67,20.95,99.25,20.61,2.35-.02,4.71,0,7.07,0Z"/>
  <path class="uuid-db67339f-24ea-4d94-83e9-dc6cf50f1992" d="M381.49,952.45c-63.37,0-126.75,0-190.12,0-3,0-6.01.06-8.98-.25-6.22-.64-10.27-4.09-11.75-10.15-.65-2.67-.98-5.49-.99-8.25-.08-17.97-.1-35.94.02-53.91.03-3.61.75-7.22,1.19-10.82.67-5.46,3.88-8.37,9.25-9.01,3.61-.43,7.22-.91,10.84-1.17,2.56-.19,5.14-.06,7.7-.07,124.18,0,248.36-.02,372.54-.02,2.78,0,5.57.02,8.35.14,1.49.07,2.99.27,4.45.6,7.23,1.64,10.37,5.06,10.57,12.43.17,6.19-.29,12.39-.42,18.58-.07,3.19-.04,6.39-.01,9.58.11,11.54.32,23.09.3,34.63,0,2.53-.69,5.08-1.26,7.58-1.29,5.66-5.01,8.78-10.67,9.65-1.69.26-3.41.37-5.12.41-3,.08-5.99.06-8.99.06-62.3,0-124.61,0-186.91,0h0Z"/>
</svg>